{
  "accessors": [
    {
      "bufferView": 2,
      "componentType": 5126,
      "count": 1081,
      "max": [
        2.469176769256592,
        1.8919860124588013,
        0.6526533365249634
      ],
      "min": [
        -2.469176769256592,
        -3.88860821723938,
        -0.7699946165084839
      ],
      "type": "VEC3"
    },
    {
      "bufferView": 2,
      "byteOffset": 12972,
      "componentType": 5126,
      "count": 1081,
      "max": [
        0.9980887770652771,
        0.9973532557487488,
        0.9995968341827393
      ],
      "min": [
        -0.9967391490936279,
        -0.998641312122345,
        -0.9997079372406006
      ],
      "type": "VEC3"
    },
    {
      "bufferView": 1,
      "componentType": 5126,
      "count": 1081,
      "max": [
        0.9987882375717163,
        0.9994457960128784
      ],
      "min": [
        0.000934940529987216,
        0.0015520250890403986
      ],
      "type": "VEC2"
    },
    {
      "bufferView": 0,
      "componentType": 5125,
      "count": 5424,
      "type": "SCALAR"
    }
  ],
  "asset": {
    "extras": {
      "author": "Miroshkins (https://sketchfab.com/miroshkins)",
      "license": "CC-BY-4.0 (http://creativecommons.org/licenses/by/4.0/)",
      "source": "https://sketchfab.com/3d-models/stylized-frying-pan-1001e27e43c04dda8d0f304dd4582202",
      "title": "Stylized frying pan"
    },
    "generator": "Sketchfab-10.70.0",
    "version": "2.0"
  },
  "bufferViews": [
    {
      "buffer": 0,
      "byteLength": 21696,
      "name": "floatBufferViews",
      "target": 34963
    },
    {
      "buffer": 0,
      "byteLength": 8648,
      "byteOffset": 21696,
      "byteStride": 8,
      "name": "floatBufferViews",
      "target": 34962
    },
    {
      "buffer": 0,
      "byteLength": 25944,
      "byteOffset": 30344,
      "byteStride": 12,
      "name": "floatBufferViews",
      "target": 34962
    }
  ],
  "buffers": [
    {
      "byteLength": 56288,
      "uri": "scene.bin"
    }
  ],
  "extensionsUsed": [
    "KHR_materials_unlit"
  ],
  "images": [
    {
      "uri": "textures/main_baseColor.png"
    }
  ],
  "materials": [
    {
      "doubleSided": true,
      "extensions": {
        "KHR_materials_unlit": {}
      },
      "name": "main",
      "pbrMetallicRoughness": {
        "baseColorTexture": {
          "index": 0
        },
        "metallicFactor": 0.0
      }
    }
  ],
  "meshes": [
    {
      "name": "Sphere.002_main_0",
      "primitives": [
        {
          "attributes": {
            "NORMAL": 1,
            "POSITION": 0,
            "TEXCOORD_0": 2
          },
          "indices": 3,
          "material": 0,
          "mode": 4
        }
      ]
    }
  ],
  "nodes": [
    {
      "children": [
        1
      ],
      "matrix": [
        1.0,
        0.0,
        0.0,
        0.0,
        0.0,
        2.220446049250313e-16,
        -1.0,
        0.0,
        0.0,
        1.0,
        2.220446049250313e-16,
        0.0,
        0.0,
        0.0,
        0.0,
        1.0
      ],
      "name": "Sketchfab_model"
    },
    {
      "children": [
        2
      ],
      "matrix": [
        1.0,
        0.0,
        0.0,
        0.0,
        0.0,
        0.0,
        1.0,
        0.0,
        0.0,
        -1.0,
        0.0,
        0.0,
        0.0,
        0.0,
        0.0,
        1.0
      ],
      "name": "99a25c18aa2e44ada67aa28b8b6ddf5f.fbx"
    },
    {
      "children": [
        3
      ],
      "name": "RootNode"
    },
    {
      "children": [
        4
      ],
      "matrix": [
        -35.97016143798787,
        4.405074975262395e-15,
        5.431343270007245e-06,
        0.0,
        5.43134327000723e-06,
        2.715671648775056e-06,
        35.97016143798776,
        0.0,
        -4.0564993507532204e-13,
        35.970161437988175,
        -2.7156716407880758e-06,
        0.0,
        -0.17631053924560547,
        49.23093795776367,
        0.004772859625518322,
        1.0
      ],
      "name": "Sphere.002"
    },
    {
      "mesh": 0,
      "name": "Sphere.002_main_0"
    }
  ],
  "samplers": [
    {
      "magFilter": 9729,
      "minFilter": 9987,
      "wrapS": 10497,
      "wrapT": 10497
    }
  ],
  "scene": 0,
  "scenes": [
    {
      "name": "Sketchfab_Scene",
      "nodes": [
        0
      ]
    }
  ],
  "textures": [
    {
      "sampler": 0,
      "source": 0
    }
  ]
}
